PathFileType	4	(X/Y/Z)	C:/Users/opensim2020/Desktop/walking_exp_matlab/subject03_walking13_straight_04.trc																																																																																																																																								
DataRate	CameraRate	NumFrames	NumMarkers	Units	OrigDataRate	OrigDataStartFrame	OrigNumFrames																																																																																																																																				
100	100	6	46	mm	100	2312	200																																																																																																																																				
Frame#	Time	LFHD			RFHD			LBHD			RBHD			C7			T10			CLAV			STRN			RBAK			LSHO			LUPA			LELB			LFRM			LWRA			LWRB			LFIN			RSHO			RUPA			RELB			RFRM			RWRA			RWRB			RFIN			LASI			RASI			LPSI			RPSI			LTHI			LKNE			LTIB			LANK			LHEE			LTOE			RTHI			RKNE			RTIB			RANK			RHEE			RTOE			*39			*40			*41			*42			*43			*44			*45		
		X1	Y1	Z1	X2	Y2	Z2	X3	Y3	Z3	X4	Y4	Z4	X5	Y5	Z5	X6	Y6	Z6	X7	Y7	Z7	X8	Y8	Z8	X9	Y9	Z9	X10	Y10	Z10	X11	Y11	Z11	X12	Y12	Z12	X13	Y13	Z13	X14	Y14	Z14	X15	Y15	Z15	X16	Y16	Z16	X17	Y17	Z17	X18	Y18	Z18	X19	Y19	Z19	X20	Y20	Z20	X21	Y21	Z21	X22	Y22	Z22	X23	Y23	Z23	X24	Y24	Z24	X25	Y25	Z25	X26	Y26	Z26	X27	Y27	Z27	X28	Y28	Z28	X29	Y29	Z29	X30	Y30	Z30	X31	Y31	Z31	X32	Y32	Z32	X33	Y33	Z33	X34	Y34	Z34	X35	Y35	Z35	X36	Y36	Z36	X37	Y37	Z37	X38	Y38	Z38	X39	Y39	Z39	X40	Y40	Z40	X41	Y41	Z41	X42	Y42	Z42	X43	Y43	Z43	X44	Y44	Z44	X45	Y45	Z45	X46	Y46	Z46
																																																																																																																																											
151	1.5	482.61069	1610.4519	-1476.32483	465.79471	1607.16064	-1344.12207	349.07678	1594.17822	-1489.50696	337.56039	1589.51868	-1358.87939	287.36148	1420.00037	-1433.76233	272.64664	1099.25293	-1429.25647	408.99237	1345.65491	-1439.00037	464.33844	1186.02527	-1448.36084	249.28822	1234.56702	-1334.31934	349.24957	1381.23193	-1591.22937	354.95349	1185.51257	-1664.94092	384.03769	1065.79468	-1676.69666	452.28809	956.32178	-1669.22559	515.3399	860.03046	-1629.90247	491.20932	849.18542	-1678.82373	544.12909	786.35187	-1665.41309	370.00565	1367.34607	-1277.15527	395.53656	1146.59436	-1202.06653	421.79233	1036.48169	-1190.78027	448.71255	902.17365	-1189.63135	477.86697	808.05872	-1229.02234	457.12057	802.74207	-1179.15674	483.66888	733.92505	-1190.7063	437.80017	947.54303	-1558.71216	456.64398	948.8974	-1322.21997	278.15698	956.78119	-1497.01489	292.57819	970.18292	-1348.94385	450.44855	645.50671	-1612.32605	509.08261	475.35211	-1595.8313	377.39835	329.38196	-1582.70459	249.21887	168.39056	-1533.34607	199.48323	161.91867	-1489.42261	349.69507	58.04122	-1519.68396	422.13602	648.68945	-1286.44104	439.4743	472.51892	-1331.20764	384.03595	285.08499	-1324.47314	331.41238	75.57412	-1371.495	280.4342	44.90516	-1417.21704	469.12228	38.117	-1396.01147	410.15283	1685.61292	-1430.5332	NaN	NaN	NaN	NaN	NaN	NaN	NaN	NaN	NaN	NaN	NaN	NaN	NaN	NaN	NaN	NaN	NaN	NaN
152	1.51	494.81909	1610.15479	-1476.7511	478.01199	1607.06433	-1344.48328	361.21368	1594.26953	-1489.79382	349.63297	1589.88025	-1359.25391	299.26395	1420.08984	-1433.81641	283.62683	1099.69702	-1429.37891	420.50647	1345.69165	-1439.22229	475.48441	1185.85815	-1448.04871	260.53741	1235.28516	-1333.9519	360.88931	1381.25879	-1591.44519	364.55969	1185.02771	-1664.67395	391.72104	1064.75269	-1676.60535	456.27795	952.71716	-1670.43982	515.80969	853.50519	-1632.62134	490.89313	844.21149	-1681.54565	541.29333	779.0166	-1669.35242	381.60101	1367.83496	-1277.42908	410.17334	1147.64355	-1202.03638	438.70334	1038.06274	-1190.85474	468.72208	904.42413	-1190.16956	499.7319	811.07831	-1230.10376	479.70688	805.37152	-1179.89868	508.11948	737.48615	-1191.63684	448.95157	948.08832	-1557.79724	466.96014	948.50726	-1321.85608	289.77161	957.12573	-1497.99023	302.97433	970.37134	-1349.55042	466.44424	647.62683	-1612.94739	527.7655	478.43573	-1595.55347	402.54001	326.33102	-1583.32922	282.80142	158.35677	-1534.82581	233.19255	148.48344	-1490.97388	389.99667	54.83925	-1520.95044	429.05005	648.12903	-1286.61975	443.49069	471.75983	-1331.04321	386.13052	285.01135	-1324.64368	331.50406	76.00671	-1371.79626	280.87842	45.0714	-1417.84082	469.15527	38.06504	-1396.01709	NaN	NaN	NaN	NaN	NaN	NaN	NaN	NaN	NaN	NaN	NaN	NaN	NaN	NaN	NaN	NaN	NaN	NaN	NaN	NaN	NaN
153	1.52	506.89774	1609.69702	-1477.19519	490.14713	1606.88635	-1344.87854	373.19434	1594.19446	-1490.16882	361.71222	1590.02087	-1359.55505	310.8992	1420.349	-1434.09607	294.69116	1099.83459	-1429.69629	432.04773	1345.50964	-1439.31396	486.63507	1185.59985	-1447.73792	271.89371	1235.70361	-1333.67847	372.6337	1381.00378	-1591.66687	374.38403	1184.36816	-1664.53625	399.28622	1063.53381	-1676.48145	460.21878	949.10297	-1671.70703	516.05682	847.04712	-1635.47131	490.36969	839.30823	-1684.03015	537.96918	771.91211	-1673.31836	393.10651	1368.05981	-1277.70337	424.56253	1148.48901	-1201.99915	455.54193	1039.52026	-1190.94666	488.78903	906.6814	-1190.83765	521.18567	814.08368	-1231.36108	502.29388	807.96918	-1180.80859	532.38934	741.0238	-1192.88953	460.68628	948.47052	-1557.69226	477.29092	947.9314	-1321.58496	301.14453	957.32867	-1498.82556	313.59326	970.25037	-1350.23706	481.78586	649.57709	-1613.68762	545.75934	481.29825	-1595.34937	427.5224	322.8161	-1583.89209	317.31339	147.83234	-1536.16345	267.87726	134.78445	-1492.25623	431.07385	51.67714	-1522.58789	436.0802	647.66852	-1286.87476	447.68018	470.95538	-1330.89075	388.32339	285.02249	-1324.81018	331.63022	76.35726	-1371.93311	281.08209	46.00963	-1417.87354	469.14044	38.08401	-1395.88525	435.02701	1685.51685	-1431.42688	NaN	NaN	NaN	NaN	NaN	NaN	NaN	NaN	NaN	NaN	NaN	NaN	NaN	NaN	NaN	NaN	NaN	NaN
154	1.53	518.97449	1609.14453	-1477.745	502.24121	1606.58337	-1345.37622	385.18338	1593.89905	-1490.5459	373.86887	1589.88965	-1359.89587	322.61432	1420.24158	-1434.25732	305.75323	1099.7428	-1429.99451	443.55362	1345.17688	-1439.29578	497.86813	1185.15173	-1447.32288	283.2175	1235.79529	-1333.53198	384.6308	1380.56311	-1591.91724	384.34103	1183.51367	-1664.38708	407.09479	1062.17944	-1676.48853	464.05792	945.40887	-1672.98157	516.15283	840.71771	-1638.26099	489.57751	834.61761	-1686.60315	534.27551	765.09052	-1677.23376	404.38391	1368.13184	-1277.99438	438.94885	1149.14624	-1201.95544	472.28131	1040.86548	-1191.12524	508.62747	908.90533	-1191.48535	542.74182	817.11011	-1232.71631	524.784	810.64508	-1181.82251	556.5047	744.47681	-1194.31946	472.44666	948.52924	-1557.6012	487.62494	947.2121	-1321.46106	312.57114	957.11536	-1499.72766	324.08621	969.97076	-1350.96167	497.49707	651.34021	-1613.83362	563.00464	483.84283	-1595.07458	452.46713	318.91193	-1584.49146	352.74902	137.47221	-1537.57898	304.11996	120.94833	-1493.66016	472.53387	48.84863	-1524.51025	443.05383	647.16571	-1287.21729	451.81845	470.13766	-1330.71118	390.50949	284.90799	-1324.94287	331.72775	76.85925	-1372.18909	281.66864	46.48776	-1418.30579	469.2478	38.0327	-1395.85327	447.43723	1685.41931	-1431.85059	NaN	NaN	NaN	NaN	NaN	NaN	NaN	NaN	NaN	NaN	NaN	NaN	NaN	NaN	NaN	NaN	NaN	NaN
155	1.54	530.84412	1608.45264	-1478.19861	514.25763	1606.20825	-1345.87183	397.06152	1593.41345	-1490.96973	385.84225	1589.75366	-1360.31921	334.3353	1419.86755	-1434.67395	316.94354	1099.38135	-1430.35254	455.05145	1344.6792	-1439.31445	509.03671	1184.53442	-1446.97974	294.29504	1235.7439	-1333.68347	396.76245	1379.93005	-1592.23901	394.43277	1182.51428	-1664.36133	414.99203	1060.68701	-1676.5188	467.79385	941.76929	-1674.30493	516.08252	834.66016	-1641.12927	488.58737	830.11761	-1689.1145	530.1142	758.60175	-1681.10266	415.65439	1367.90283	-1278.22803	453.16351	1149.5863	-1202.01904	488.89108	1042.01343	-1191.34985	528.35541	910.99713	-1192.3335	564.10986	820.06659	-1234.16077	547.18628	813.26624	-1182.92603	580.37518	747.95374	-1195.953	484.98657	948.74432	-1557.63696	497.98969	946.43243	-1321.4187	323.90067	956.76746	-1500.60889	334.61023	969.5257	-1351.75781	512.32617	652.68359	-1614.47595	579.3775	485.90421	-1594.85889	477.27258	314.70294	-1585.21997	389.03195	127.05628	-1539.1123	341.26868	107.37215	-1495.64636	514.26752	46.49558	-1526.75012	449.85602	646.5993	-1287.58374	455.96011	469.31277	-1330.49536	392.66812	284.7988	-1325.10193	332.18967	77.23021	-1372.38135	281.40082	47.36745	-1419.11426	469.30429	37.97218	-1395.86658	459.69055	1684.93518	-1432.46948	NaN	NaN	NaN	NaN	NaN	NaN	NaN	NaN	NaN	NaN	NaN	NaN	NaN	NaN	NaN	NaN	NaN	NaN
156	1.55	542.67523	1607.64246	-1478.7135	526.12085	1605.69531	-1346.33936	408.90387	1592.72229	-1491.38562	397.67783	1589.37805	-1360.75806	346.02597	1419.44629	-1435.04468	328.18985	1098.75757	-1430.84692	466.58737	1344.02124	-1439.31531	520.47583	1183.78162	-1446.66931	305.38586	1235.34167	-1333.96057	408.94135	1379.10034	-1592.58777	404.64572	1181.32031	-1664.27954	423.00223	1059.19568	-1676.65979	471.51199	938.16473	-1675.60779	515.57373	828.66943	-1643.9187	487.38	825.85156	-1691.55017	525.69983	752.50165	-1684.8313	426.91263	1367.42285	-1278.41748	467.26761	1149.81104	-1202.09473	505.34756	1043.06836	-1191.66638	547.95404	913.07104	-1193.24878	585.35242	823.03265	-1235.71143	569.32959	815.8988	-1184.24463	604.013	751.41467	-1197.74426	496.63696	948.33124	-1557.77612	508.21783	945.43292	-1321.41138	335.33679	956.19958	-1501.48865	345.04218	968.91949	-1352.57227	526.91199	653.70148	-1615.19714	595.0105	487.59552	-1594.83093	501.87723	310.2402	-1586.09619	426.11292	116.88578	-1540.93042	380.16211	93.86096	-1496.95337	556.52368	44.90569	-1529.26501	456.62872	646.01196	-1287.88867	460.22336	468.49173	-1330.25952	394.9259	284.73978	-1325.2373	332.40329	77.729	-1372.64954	281.50467	48.5397	-1419.13696	469.36633	37.87789	-1395.97888	NaN	NaN	NaN	NaN	NaN	NaN	NaN	NaN	NaN	NaN	NaN	NaN	NaN	NaN	NaN	NaN	NaN	NaN	NaN	NaN	NaN
